<svg width="522" height="478" viewBox="0 0 522 478" fill="none" xmlns="http://www.w3.org/2000/svg">
<g clip-path="url(#clip0)">
<path d="M397.093 126.082C397.015 126.378 396.891 126.668 396.867 126.968C396.547 130.948 394.5 133.826 391.179 135.874C389.047 137.192 386.693 137.984 384.255 138.439C373.974 140.353 363.699 140.585 353.491 137.987C351.319 137.435 349.218 136.589 347.11 135.804C345.725 135.288 345.096 134.122 345.005 132.717C344.897 131.086 344.904 129.445 344.873 127.811C344.725 119.497 344.584 111.181 344.436 102.868C344.425 102.389 344.395 101.911 344.18 101.378C344.008 101.658 343.806 101.924 343.664 102.217C342.381 104.923 341.667 107.798 341.408 110.763C341.206 113.095 341.112 115.444 341.122 117.782C341.28 161.131 341.472 204.479 341.637 247.831C341.714 268.134 341.741 288.437 341.836 308.743C341.846 310.633 341.253 312.025 339.744 313.181C336.498 315.675 332.962 317.653 329.247 319.334C322.253 322.498 314.928 324.625 307.441 326.232C299.308 327.978 291.081 329.059 282.793 329.737C271.367 330.67 259.923 330.842 248.473 330.407C238.306 330.023 228.196 329.049 218.211 327.01C210.748 325.487 203.454 323.428 196.543 320.156C193.095 318.525 189.805 316.635 186.895 314.145C185.925 313.316 185.049 312.369 184.154 311.452C183.342 310.62 182.995 309.595 183.042 308.433C183.059 308.035 183.046 307.638 183.046 307.24C183.046 244.118 183.042 180.995 183.052 117.873C183.052 113.661 182.907 109.469 181.934 105.354C181.601 103.939 181.096 102.568 180.644 101.183C180.513 100.782 180.287 100.411 179.887 100.044C179.86 100.408 179.813 100.772 179.806 101.136C179.634 111.174 179.466 121.216 179.294 131.254C179.287 131.608 179.27 131.962 179.267 132.316C179.254 134.392 178.3 135.945 176.6 137.074C175.293 137.94 173.832 138.442 172.323 138.806C169.433 139.5 166.483 139.868 163.523 139.864C158.397 139.857 153.262 139.871 148.15 139.564C142.815 139.244 137.703 137.809 132.931 135.345C131.722 134.722 130.594 133.917 129.509 133.094C128.479 132.313 127.698 131.292 127.256 130.038C127.159 129.762 126.936 129.526 126.771 129.273C126.771 128.565 126.771 127.858 126.771 127.15C126.933 126.244 127.159 125.344 127.246 124.431C128.092 115.585 128.809 106.726 129.775 97.8939C130.803 88.4922 132.17 79.131 133.965 69.8372C135.13 63.8054 136.504 57.8241 138.42 51.9742C140.296 46.2456 143.499 41.4133 147.88 37.3191C150.376 34.9872 153.076 32.9216 155.949 31.0817C163.217 26.4247 171.08 23.0852 179.274 20.4636C180.702 20.0053 182.173 19.6481 183.551 19.0719C189.212 16.713 194.846 14.2868 200.49 11.8875C208.128 8.63571 215.766 5.38727 223.404 2.13208C223.849 1.94337 224.33 1.78499 224.714 1.50531C226.058 0.528075 227.523 0.501117 229.015 0.959404C230.193 1.31997 231.359 1.7513 232.487 2.25002C240.377 5.72424 248.608 7.67533 257.229 8.07633C265.739 8.46049 274.111 7.69892 282.241 5.1379C287.151 3.59119 291.96 1.72097 296.816 -0.000976562C297.258 -0.000976562 297.702 -0.000976562 298.143 -0.000976562C299.16 0.389915 300.309 0.60558 300.932 1.61988C301.359 2.31405 301.979 2.63754 302.683 2.93071C311.149 6.4757 319.629 9.9971 328.072 13.6027C335.178 16.6389 342.193 19.8907 349.487 22.4686C351.191 23.0718 352.868 23.7592 354.545 24.4466C360.193 26.765 365.716 29.3227 370.848 32.6688C378.715 37.7942 384.057 44.7797 386.774 53.8039C389.152 61.6959 390.792 69.7463 392.024 77.8741C393.055 84.6911 393.995 91.525 394.739 98.3791C395.581 106.113 396.16 113.873 396.864 121.624C396.894 121.964 397.012 122.294 397.09 122.628C397.093 123.784 397.093 124.933 397.093 126.082ZM184.335 98.6419C185.073 100.431 185.716 102.281 186.184 104.158C187.302 108.65 187.501 113.246 187.501 117.856C187.498 180.763 187.498 243.673 187.498 306.58C187.498 306.977 187.525 307.378 187.491 307.772C187.44 308.349 187.626 308.807 188.05 309.184C188.875 309.919 189.656 310.708 190.522 311.392C193.634 313.848 197.119 315.661 200.753 317.198C209.196 320.77 218.066 322.724 227.088 324.062C236.417 325.443 245.813 326.023 255.232 326.168C267.356 326.357 279.449 325.882 291.495 324.399C298.783 323.503 305.997 322.225 313.089 320.321C319.114 318.704 325.017 316.716 330.534 313.757C332.669 312.611 334.659 311.2 336.713 309.909C337.202 309.602 337.468 309.198 337.394 308.588C337.35 308.241 337.387 307.88 337.387 307.526C337.175 256.387 336.959 205.248 336.754 154.105C336.703 141.495 336.68 128.889 336.663 116.279C336.656 112.508 336.98 108.768 337.943 105.109C338.758 102.002 339.987 99.08 341.984 96.5325C342.058 96.4381 348.618 89.5368 348.773 97.4895C348.915 104.876 349.019 112.262 349.144 119.649C349.208 123.41 349.309 127.167 349.346 130.928C349.352 131.703 349.551 132.164 350.332 132.387C351.521 132.724 352.676 133.182 353.865 133.516C360.678 135.426 367.629 135.703 374.637 135.238C375.988 135.147 377.338 134.992 378.813 134.857C378.682 132.478 378.56 130.247 378.439 128.043C380.483 127.544 382.427 127.133 384.336 126.591C386.842 125.88 389.317 125.071 391.802 124.293C392.19 124.171 392.705 124.127 392.54 123.336C387.811 124.646 383.191 126.203 378.338 127.042C378.291 126.756 378.244 126.587 378.237 126.419C378.23 126.25 378.267 126.082 378.291 125.88C378.621 125.792 378.914 125.711 379.207 125.63C383.255 124.542 387.306 123.457 391.354 122.365C391.651 122.284 391.971 122.217 392.223 122.055C392.381 121.957 392.435 121.694 392.674 121.246C387.697 122.655 382.989 123.939 378.092 124.731C377.974 123.582 377.82 122.51 378.052 121.422C379.588 121.105 381.066 120.852 382.517 120.488C385.515 119.737 388.499 118.928 391.486 118.146C391.87 118.045 392.264 117.967 392.102 117.246C387.444 118.527 382.874 119.979 378.022 120.68C378.022 120.245 378.022 119.882 378.022 119.477C382.794 118.594 387.434 117.405 392.065 115.878C391.977 114.911 391.903 114.035 391.816 113.162C391.253 107.531 390.815 101.884 390.091 96.273C389.091 88.5158 387.96 80.7721 386.717 73.0486C385.734 66.9393 384.312 60.9175 382.514 54.9834C380.133 47.1183 375.516 40.9719 368.632 36.5272C366.777 35.3309 364.877 34.192 362.928 33.1608C355.68 29.3328 347.985 26.5763 340.31 23.776C339.893 23.6244 339.354 23.6581 338.899 23.7558C331.904 25.2486 324.933 26.8627 317.918 28.2544C308.428 30.1381 298.864 31.6107 289.242 32.6621C287.427 32.8609 285.737 33.2383 284.1 34.165C281.443 35.6679 278.543 36.6552 275.586 37.4269C268.881 39.1792 262.085 39.5869 255.205 38.8153C250.066 38.2357 245.126 36.9585 240.552 34.502C239.037 33.6865 237.515 33.2754 235.807 33.0766C229.314 32.3184 222.825 31.5063 216.362 30.5223C206.007 28.9486 195.779 26.7381 185.703 23.8535C184.851 23.6109 184.09 23.621 183.251 23.8636C177.597 25.5014 172.101 27.5502 166.79 30.0943C162.156 32.315 157.747 34.9131 153.699 38.1042C148.089 42.5254 143.98 47.9642 142.111 54.9564C141.963 55.5124 141.771 56.0549 141.609 56.6042C139.185 64.941 137.689 73.4732 136.359 82.0358C134.797 92.0878 133.665 102.19 132.668 112.313C132.56 113.405 132.496 114.5 132.402 115.767C136.662 117.061 140.869 118.342 145.142 119.639C145.105 119.946 145.065 120.279 145.018 120.673C140.663 119.801 136.565 118.318 132.419 116.984C132.19 117.597 132.503 117.735 132.853 117.85C134.197 118.291 135.527 118.766 136.881 119.164C139.585 119.956 142.303 120.7 145.038 121.472C145.038 122.537 145.038 123.582 145.038 124.724C140.542 123.797 136.299 122.375 131.937 120.994C132.16 121.792 132.15 121.823 132.85 122.048C136.504 123.228 140.165 124.39 143.822 125.56C144.152 125.664 144.479 125.782 144.859 125.91C144.809 126.291 144.762 126.618 144.708 127.032C140.293 125.988 136.134 124.424 131.914 123.036C131.604 123.918 132.251 123.962 132.651 124.097C136.251 125.3 139.858 126.476 143.465 127.659C143.832 127.78 144.203 127.891 144.62 128.023C144.499 130.227 144.381 132.37 144.267 134.489C144.694 134.611 144.943 134.708 145.203 134.752C145.9 134.87 146.597 135.012 147.301 135.062C154.232 135.568 161.162 135.858 168.09 135.072C169.976 134.857 171.848 134.513 173.599 133.708C174.441 133.323 174.869 132.778 174.862 131.767C174.849 129.512 174.997 127.258 175.03 125C175.192 114.163 175.334 106.44 175.485 95.6024C175.411 94.5713 179.291 90.1839 184.335 98.6419ZM297.049 4.48417C295.395 5.12106 293.9 5.65685 292.438 6.26677C283.086 10.1723 273.377 12.3964 263.217 12.5547C256.919 12.6525 250.679 12.2043 244.513 10.88C239.481 9.80165 234.672 8.05948 229.954 6.05111C229.402 5.81523 228.829 5.63326 228.075 5.35357C228.186 6.70821 228.25 7.85056 228.375 8.98617C228.944 14.243 230.698 19.0449 233.952 23.247C237.892 28.3387 243.129 31.4692 249.254 33.1642C256.586 35.1928 264.005 35.2602 271.448 33.8314C276.758 32.8104 281.716 30.8829 286.117 27.685C292.246 23.2301 296.025 17.3229 296.978 9.73762C297.18 8.07633 297.379 6.40156 297.049 4.48417ZM203.1 18.5192C203.056 18.6169 203.013 18.7113 202.969 18.809C203.737 19.4358 204.525 20.0423 205.272 20.6961C206.249 21.5486 207.461 21.4509 208.546 21.2993C209.037 21.2319 209.415 20.3119 209.832 19.7694C209.967 19.5942 210.092 19.4088 210.182 19.2066C210.607 18.2631 211.26 17.9329 212.307 18.1991C213.449 18.4889 214.624 18.627 215.817 18.836C216.369 17.6431 216.888 16.5243 217.406 15.4089C218.157 13.7982 217.824 13.9431 219.619 13.9869C220.414 14.0071 221.208 14.0408 222.003 14.0408C222.811 14.0408 223.933 13.1242 223.886 12.366C223.818 11.1967 223.586 10.0342 223.384 8.55821C222.727 9.36695 222.242 9.92296 221.808 10.5127C221.488 10.9474 221.111 11.126 220.568 11.0956C219.511 11.0384 218.447 11.0822 217.393 10.9912C216.648 10.9271 216.268 11.2136 215.961 11.8538C215.318 13.2017 214.608 14.5193 213.907 15.8874C212.24 15.6212 210.651 15.3685 209.051 15.1158C208.394 16.4468 207.791 17.6667 207.172 18.9168C205.761 18.7787 204.43 18.6473 203.1 18.5192ZM317.026 18.9202C316.362 17.5824 315.76 16.3626 315.133 15.1023C313.497 15.3685 311.941 15.6246 310.294 15.8942C309.839 15.0079 309.408 14.1453 308.954 13.2927C308.56 12.5581 308.304 11.564 307.684 11.19C307.064 10.8159 306.067 11.0586 305.236 11.0586C304.057 11.0552 302.804 11.3955 301.861 10.0241C301.629 11.4528 301.434 12.6525 301.221 13.9734C302.612 13.9734 303.838 14.024 305.057 13.9566C305.828 13.9161 306.27 14.1284 306.573 14.8731C307.118 16.2143 307.768 17.5117 308.384 18.8461C309.731 18.6035 310.988 18.3945 312.24 18.1519C312.931 18.0171 313.429 18.1856 313.786 18.8326C314.167 19.5301 314.594 20.2041 315.046 20.8545C315.204 21.0836 315.48 21.3262 315.736 21.3734C317.588 21.7104 320.171 20.3389 321.114 18.5091C319.754 18.6439 318.444 18.7753 317.026 18.9202ZM208.35 22.4079C209.849 23.2942 211.267 23.7558 212.698 24.1568C212.998 24.2411 213.395 24.0962 213.708 23.9715C217.935 22.2731 221.484 19.5167 225.108 16.7669C224.835 15.8672 224.589 15.0517 224.313 14.1318C219.204 17.4005 214.335 20.7534 208.35 22.4079ZM315.578 22.5865C313.055 21.4374 310.523 20.4164 308.118 19.1527C305.667 17.8655 303.336 16.3423 300.898 14.8866C300.602 15.7661 300.326 16.5917 300.019 17.4948C301.268 18.4046 302.43 19.3617 303.703 20.1434C305.805 21.4374 307.97 22.6269 310.129 23.83C310.499 24.0355 311.001 24.2444 311.382 24.1602C312.877 23.8333 314.298 23.2672 315.578 22.5865ZM379.689 132.296C381.11 132.532 382.336 132.69 383.541 132.949C384.521 133.162 385.148 132.872 385.811 132.097C387.687 129.9 387.135 129.954 389.862 130.715C390.139 130.793 390.607 130.715 390.782 130.523C391.853 129.371 392.419 127.982 392.56 126.109C391.859 126.975 391.341 127.615 390.762 128.329C389.287 127.915 387.818 127.507 386.367 127.1C385.454 128.319 384.616 129.442 383.777 130.564C382.356 130.058 381.036 129.586 379.54 129.057C379.594 130.21 379.638 131.201 379.689 132.296ZM136.676 126.604C135.531 126.884 134.46 127.127 133.399 127.41C132.752 127.581 132.129 127.767 131.587 126.81C131.533 127.49 131.496 127.875 131.476 128.259C131.469 128.39 131.483 128.525 131.52 128.65C131.789 129.586 132.789 130.196 133.759 129.893C135.029 129.495 135.972 129.758 136.679 130.921C136.976 131.406 137.373 131.837 137.784 132.235C138.013 132.454 138.37 132.697 138.653 132.676C140.185 132.562 141.71 132.37 143.253 132.205C143.479 131.096 143.58 130.089 143.411 128.993C141.953 129.428 140.616 129.829 139.255 130.237C138.383 129.014 137.568 127.864 136.676 126.604ZM223.296 4.90876C223.232 4.85147 223.165 4.79419 223.101 4.7369C222.862 4.91887 222.616 5.09073 222.384 5.2828C218.679 8.3257 214.638 10.8362 210.246 12.7401C207.542 13.9128 204.747 14.8799 201.996 15.9447C201.672 16.0694 201.366 16.2311 201.049 16.3794C201.093 16.4974 201.137 16.6153 201.181 16.7332C201.534 16.6591 201.898 16.6187 202.238 16.5041C206.579 15.0214 210.809 13.2725 214.928 11.2372C217.975 9.72751 220.521 7.5675 223.02 5.32324C223.138 5.21204 223.205 5.04692 223.296 4.90876ZM323.031 16.676C323.071 16.5412 323.108 16.403 323.148 16.2682C315.615 13.8622 308.485 10.6643 302.198 5.74783C302.232 6.041 302.302 6.30384 302.471 6.43526C304.144 7.72251 305.734 9.16139 307.542 10.2296C312.15 12.9557 317.147 14.8394 322.192 16.5883C322.451 16.676 322.751 16.649 323.031 16.676ZM215.13 24.8207C215.988 25.5687 216.669 25.3699 217.376 24.8611C219.875 23.0616 222.387 21.2757 224.893 19.483C225.142 19.3044 225.428 19.1426 225.603 18.9034C225.718 18.745 225.667 18.4619 225.711 17.9902C222.232 20.5444 218.986 23.0381 215.13 24.8207ZM308.883 24.9891C305.7 22.9336 302.579 20.9218 299.467 18.9101C299.042 19.3751 299.433 19.5739 299.702 19.7694C302.144 21.5149 304.596 23.2402 307.034 24.9891C307.697 25.4677 308.307 25.4306 308.883 24.9891ZM227.375 21.9901C225.226 23.5469 223.121 25.0734 220.942 26.6504C221.7 27.0144 222.195 26.8829 222.7 26.5089C224.182 25.4104 225.691 24.3455 227.183 23.2571C227.415 23.0886 227.61 22.8662 227.839 22.6505C227.671 22.4113 227.55 22.2394 227.375 21.9901ZM297.497 22.4753C297.315 22.7651 297.183 22.974 296.998 23.2638C298.436 24.2983 299.83 25.2891 301.215 26.2966C301.659 26.6201 302.08 26.5965 302.713 26.2663C300.949 24.9858 299.298 23.7828 297.497 22.4753ZM224.111 27.1289C225.825 27.5401 225.839 27.5535 226.765 26.61C227.378 25.9866 227.95 25.3228 228.513 24.6522C228.634 24.5073 228.624 24.2545 228.752 23.7524C227.088 24.9588 225.691 25.9765 224.111 27.1289ZM208.765 10.4116C208.32 10.2802 207.781 10.1184 207.347 9.99036C207.091 10.388 206.795 10.8564 206.535 11.2574C206.821 11.5843 207.175 11.992 207.482 12.3424C207.916 12.1807 208.401 11.9987 208.768 11.8606C208.765 11.3551 208.765 10.8429 208.765 10.4116ZM299.514 26.7212C298.352 25.8653 297.305 25.0532 295.968 24.1737C296.008 24.6859 295.954 24.9285 296.052 25.0532C296.432 25.5384 296.88 25.9731 297.271 26.4516C297.884 27.2064 298.581 27.2064 299.514 26.7212ZM315.544 10.4823C315.47 10.9777 315.399 11.4528 315.342 11.8336C315.837 12.0257 316.366 12.2279 316.986 12.4638C316.622 11.6853 317.312 11.5135 317.743 11.3281C317.386 10.8294 317.083 10.4048 316.783 9.98362C316.44 10.1218 315.989 10.3037 315.544 10.4823Z" fill="#39E991"/>
<path d="M329.267 76.9919C329.271 85.8005 322.145 92.9376 313.338 92.941C304.528 92.9444 297.392 85.8072 297.395 76.9919C297.395 68.1766 304.535 61.0395 313.341 61.0496C322.145 61.0563 329.264 68.1834 329.267 76.9919ZM328.425 76.9987C328.425 68.6619 321.673 61.8954 313.341 61.892C305.01 61.8887 298.244 68.645 298.237 76.9818C298.231 85.3253 304.986 92.0952 313.321 92.1019C321.66 92.1053 328.425 85.3388 328.425 76.9987Z" fill="#39E991"/>
<path d="M313.951 80.5574C313.096 80.5642 312.247 80.517 311.399 80.4159C311.297 80.4024 311.227 80.3687 311.166 80.2777C310.115 78.6906 309.061 77.1068 308 75.5264C307.92 75.4084 307.903 75.2972 307.95 75.1726C308.108 74.7581 308.243 74.3369 308.432 73.9359C308.748 73.2653 309.122 72.6217 309.428 71.9477C309.627 71.5096 309.9 71.1221 310.132 70.7076C310.159 70.6638 310.223 70.62 310.274 70.6133C311.809 70.4077 313.348 70.3504 314.894 70.4785C315.399 70.5189 315.904 70.5493 316.41 70.5897C316.457 70.5931 316.517 70.6335 316.544 70.6773C316.78 71.048 317.012 71.4187 317.238 71.7927C317.824 72.7666 318.326 73.7842 318.821 74.8053C318.939 75.0479 318.952 75.277 318.875 75.5264C318.72 76.042 318.481 76.5238 318.228 76.9922C317.817 77.7538 317.44 78.5322 316.922 79.2297C316.672 79.5634 316.42 79.897 316.167 80.2272C316.043 80.3923 315.884 80.4698 315.669 80.4766C315.1 80.4934 314.527 80.5305 313.951 80.5574Z" fill="#39E991"/>
<path d="M313.702 81.3729C314.325 81.3527 315.244 81.3224 316.164 81.2853C316.272 81.2819 316.342 81.3055 316.41 81.3931C317.262 82.4917 318.056 83.6273 318.828 84.7831C318.996 85.0358 319.009 85.2751 318.851 85.5379C318.43 86.2389 318.026 86.9499 317.595 87.644C317.403 87.9541 317.181 88.2506 316.948 88.5337C316.861 88.6415 316.723 88.7392 316.591 88.7729C316.174 88.8841 315.75 88.9886 315.322 89.0492C314.103 89.2211 312.877 89.2716 311.648 89.2278C311.176 89.211 310.708 89.1368 310.24 89.0796C310.018 89.0526 309.866 88.9245 309.745 88.7291C309.102 87.6811 308.512 86.6095 307.994 85.4941C307.96 85.42 307.96 85.3593 308.011 85.2987C308.253 84.9887 308.492 84.6787 308.735 84.372C309.3 83.6576 309.866 82.9432 310.429 82.2255C310.658 81.9323 310.88 81.6358 311.102 81.3392C311.153 81.2685 311.207 81.2482 311.291 81.2516C311.998 81.292 312.702 81.3257 313.702 81.3729Z" fill="#39E991"/>
<path d="M300.595 72.7497C300.656 72.5408 300.699 72.3217 300.783 72.1162C301.326 70.7649 302.077 69.5316 302.979 68.3892C303.255 68.0421 303.532 67.6951 303.811 67.3513C303.851 67.3042 303.912 67.257 303.973 67.2435C305.108 66.9436 306.256 66.7583 307.435 66.8088C307.573 66.8156 307.667 66.8594 307.745 66.9807C308.3 67.8265 308.815 68.6959 309.22 69.6293C309.398 70.0438 309.398 70.4178 309.159 70.8155C308.768 71.4692 308.408 72.1431 308.038 72.8137C307.684 73.454 307.431 74.138 307.189 74.8288C307.142 74.967 307.081 75.0209 306.93 75.031C305.882 75.1119 304.845 75.277 303.821 75.5129C303.259 75.6443 302.696 75.7656 302.134 75.8971C302.03 75.9206 301.962 75.9206 301.908 75.8027C301.524 74.9636 301.127 74.1313 300.746 73.2889C300.672 73.1271 300.649 72.9418 300.595 72.7497Z" fill="#39E991"/>
<path d="M320.198 66.6504C320.505 66.6504 320.815 66.637 321.121 66.6538C321.778 66.6875 322.394 66.8425 322.842 67.3716C323.169 67.7557 323.499 68.1432 323.795 68.5544C324.364 69.3429 324.869 70.1718 325.28 71.0513C325.516 71.5568 325.684 72.096 325.869 72.625C325.903 72.7194 325.886 72.8508 325.846 72.9451C325.738 73.1878 325.63 73.4371 325.475 73.6461C325.095 74.1549 324.684 74.6469 324.29 75.1422C324.196 75.2602 324.105 75.3815 324.011 75.5028C323.926 75.614 323.825 75.6645 323.674 75.641C323.031 75.5466 322.387 75.4725 321.744 75.3714C321.151 75.2804 320.565 75.1692 319.976 75.0681C319.885 75.0512 319.838 75.0074 319.801 74.9165C319.515 74.1684 319.137 73.4675 318.733 72.78C318.289 72.0218 317.848 71.2636 317.393 70.5156C317.238 70.2595 317.231 70.0168 317.336 69.7472C317.747 68.7026 318.262 67.7153 318.878 66.7785C318.942 66.6808 319.02 66.6336 319.137 66.6336C319.491 66.637 319.845 66.6336 320.202 66.6336C320.198 66.6437 320.198 66.6471 320.198 66.6504Z" fill="#39E991"/>
<path d="M324.532 82.7983C325.054 83.0578 325.573 83.3105 326.085 83.5734C326.112 83.5868 326.139 83.661 326.129 83.6879C326.051 83.8665 325.984 84.0519 325.876 84.2102C325.452 84.8202 325.024 85.4267 324.583 86.0232C323.536 87.4351 322.199 88.5269 320.707 89.4233C320.114 89.7805 319.461 90.0366 318.834 90.3398C318.669 90.4173 318.541 90.3971 318.41 90.2556C318.134 89.9591 317.844 89.6726 317.555 89.3896C317.477 89.3154 317.474 89.2514 317.531 89.1705C317.578 89.1065 317.619 89.0357 317.669 88.9717C318.508 87.9406 319.175 86.805 319.71 85.5918C319.824 85.329 319.973 85.2043 320.266 85.1336C321.387 84.8606 322.441 84.4124 323.387 83.7418C323.721 83.506 324.024 83.2296 324.341 82.9702C324.411 82.9196 324.469 82.859 324.532 82.7983Z" fill="#39E991"/>
<path d="M300.703 83.9676C300.874 83.8699 301.046 83.7688 301.218 83.6745C301.491 83.5296 301.767 83.3948 302.036 83.2465C302.168 83.1724 302.259 83.1858 302.366 83.2903C302.717 83.6239 303.087 83.9407 303.501 84.1968C304.488 84.8067 305.545 85.2245 306.687 85.4335C307.054 85.5009 307.064 85.5009 307.219 85.8378C307.775 87.0408 308.452 88.1798 309.132 89.3154C309.152 89.3491 309.169 89.3795 309.196 89.4266C309.152 89.4637 309.115 89.5075 309.068 89.5412C308.731 89.7973 308.398 90.0534 308.132 90.387C308.108 90.4173 308.031 90.4308 307.99 90.414C307.758 90.3264 307.526 90.2421 307.3 90.1343C306.269 89.6524 305.364 88.9751 304.454 88.3045C303.66 87.7182 302.919 87.0779 302.289 86.313C301.777 85.6896 301.305 85.0392 300.881 84.3484C300.821 84.2507 300.773 84.1496 300.723 84.0451C300.716 84.0283 300.713 84.0013 300.703 83.9676Z" fill="#39E991"/>
<path d="M327.877 76.8406C327.863 77.8886 327.742 78.9298 327.6 79.9677C327.472 80.9045 327.169 81.7874 326.775 82.6399C326.654 82.9062 326.691 82.8994 326.415 82.7714C325.96 82.5624 325.512 82.3333 325.065 82.1075C325.034 82.0907 325.004 82.03 325.007 81.993C325.041 81.6897 325.098 81.3898 325.115 81.0899C325.149 80.4294 325.203 79.7689 325.156 79.1051C325.085 78.1042 324.933 77.1203 324.66 76.1532C324.647 76.1094 324.674 76.0386 324.708 76.0015C324.883 75.8128 325.071 75.6376 325.243 75.4455C325.55 75.1052 325.782 74.7109 325.997 74.3099C326.146 74.037 326.307 73.7674 326.459 73.4944C326.496 73.4237 326.543 73.4034 326.62 73.4135C326.796 73.4371 326.974 73.4506 327.149 73.4641C327.358 73.4809 327.493 73.5921 327.536 73.7876C327.621 74.1583 327.718 74.5289 327.759 74.903C327.829 75.5432 327.863 76.1902 327.91 76.8339C327.9 76.8406 327.887 76.8406 327.877 76.8406Z" fill="#39E991"/>
<path d="M299.965 73.5685C300.066 73.8044 300.164 74.0336 300.262 74.2593C300.457 74.7075 300.645 75.1591 300.851 75.6039C300.969 75.8566 301.11 76.0925 301.248 76.3351C301.329 76.4766 301.343 76.6249 301.319 76.7867C301.204 77.5583 301.134 78.3368 301.147 79.1185C301.161 79.9778 301.326 80.8102 301.541 81.6391C301.602 81.875 301.649 82.1176 301.703 82.3535C301.723 82.4445 301.696 82.495 301.609 82.5388C301.215 82.7343 300.827 82.9365 300.437 83.1353C300.403 83.1521 300.369 83.1656 300.315 83.1926C300.228 83.0275 300.134 82.8724 300.059 82.7107C299.652 81.8211 299.406 80.8776 299.204 79.9239C299.042 79.1556 298.921 78.3806 298.894 77.592C298.857 76.4564 298.958 75.3343 299.187 74.2189C299.214 74.0942 299.228 73.9695 299.258 73.8449C299.268 73.8011 299.312 73.7471 299.349 73.7337C299.541 73.6797 299.743 73.6292 299.965 73.5685Z" fill="#39E991"/>
<path d="M312.937 62.5427C312.948 62.7853 312.961 63.0111 312.961 63.2369C312.961 63.2605 312.9 63.2975 312.863 63.311C312.294 63.5233 311.722 63.7255 311.159 63.9445C310.452 64.2208 309.752 64.5174 309.119 64.9386C308.738 65.1913 308.374 65.4778 308.017 65.7642C307.849 65.9023 307.674 65.99 307.458 65.9866C306.485 65.9697 305.539 66.182 304.586 66.3337C304.299 66.3775 304.01 66.4078 303.724 66.4449C303.713 66.4314 303.703 66.4179 303.693 66.4011C303.737 66.3135 303.767 66.2124 303.831 66.145C303.99 65.9832 304.155 65.8248 304.333 65.6833C305.209 64.979 306.212 64.4938 307.219 64.022C308.064 63.6244 308.927 63.2571 309.819 62.9774C310.52 62.7584 311.24 62.6168 311.978 62.5764C312.254 62.5629 312.533 62.5528 312.81 62.5427C312.843 62.5393 312.884 62.5427 312.937 62.5427Z" fill="#39E991"/>
<path d="M322.121 65.9529C321.788 65.9057 321.471 65.8585 321.155 65.8147C320.458 65.717 319.757 65.717 319.057 65.7541C319.04 65.7541 319.023 65.7541 319.006 65.7575C318.683 65.808 318.43 65.7238 318.184 65.4744C317.666 64.9487 317.012 64.605 316.336 64.3253C315.487 63.9715 314.625 63.6547 313.769 63.3245C313.726 63.3076 313.685 63.2908 313.655 63.2807C313.655 63.0347 313.655 62.7988 313.655 62.5461C313.753 62.5393 313.833 62.5326 313.914 62.5292C314.86 62.5124 315.79 62.6438 316.709 62.8561C318.299 63.2268 319.801 63.8064 321.168 64.7095C321.502 64.9285 321.811 65.188 322.125 65.434C322.162 65.4643 322.185 65.5418 322.182 65.5923C322.175 65.7103 322.145 65.8248 322.121 65.9529Z" fill="#39E991"/>
<path d="M20.5071 428.478C25.4095 430.448 29.8976 431.432 33.9714 431.432C38.2524 431.432 41.653 430.603 44.1732 428.945C46.6935 427.287 47.9536 425.318 47.9536 423.038C47.9536 421.172 47.2113 419.652 45.7268 418.478C44.2423 417.303 42.3607 416.422 40.0821 415.835C37.8036 415.248 34.8 414.609 31.0714 413.918C26.1 413.089 21.5429 412.018 17.4 410.705C13.2571 409.392 9.49405 407.112 6.11071 403.865C2.72738 400.618 1.03571 396.231 1.03571 390.704C1.03571 382.551 4.02202 376.696 9.99464 373.137C15.9673 369.579 22.9929 367.8 31.0714 367.8C37.2857 367.8 42.6887 368.647 47.2804 370.339C51.872 372.032 56.4464 374.571 61.0036 377.956L51.8893 390.393C48.506 387.974 44.9845 386.075 41.325 384.693C37.6655 383.311 34.0405 382.62 30.45 382.62C27.2738 382.62 24.3048 383.19 21.5429 384.33C18.781 385.47 17.4 387.387 17.4 390.082C17.4 391.74 18.1077 393.07 19.5232 394.072C20.9387 395.073 22.4923 395.799 24.1839 396.248C25.8756 396.697 28.6202 397.336 32.4179 398.165L36.1464 398.891C41.8774 399.996 46.6244 401.222 50.3875 402.57C54.1506 403.917 57.4131 406.18 60.175 409.358C62.9369 412.536 64.3179 416.958 64.3179 422.623C64.3179 430.292 61.6077 436.13 56.1875 440.137C50.7673 444.145 43.431 446.148 34.1786 446.148C20.6452 446.148 9.25238 442.21 0 434.334L8.7 421.794C11.669 424.281 15.6048 426.509 20.5071 428.478ZM123.613 372.567C128.204 374.986 131.743 378.25 134.229 382.361C136.714 386.472 137.957 391.049 137.957 396.093C137.957 401.136 136.801 405.661 134.488 409.669C132.174 413.676 128.705 416.837 124.079 419.151C119.452 421.466 113.86 422.623 107.3 422.623H93.0071V444.697H76.6429V368.94H107.404C113.618 368.94 119.021 370.149 123.613 372.567ZM118.486 404.798C120.488 402.38 121.489 399.478 121.489 396.093C121.489 393.882 120.971 391.792 119.936 389.823C118.9 387.854 117.364 386.247 115.327 385.004C113.29 383.76 110.856 383.138 108.025 383.138H93.0071V408.425H109.682C113.549 408.425 116.483 407.216 118.486 404.798ZM164.161 440.863C157.946 437.339 153.01 432.555 149.35 426.509C145.69 420.464 143.861 413.883 143.861 406.767C143.861 399.72 145.69 393.174 149.35 387.128C153.01 381.083 157.946 376.298 164.161 372.775C170.375 369.251 177.176 367.489 184.564 367.489C191.952 367.489 198.788 369.251 205.071 372.775C211.355 376.298 216.326 381.083 219.986 387.128C223.645 393.174 225.475 399.72 225.475 406.767C225.475 413.883 223.645 420.464 219.986 426.509C216.326 432.555 211.355 437.339 205.071 440.863C198.788 444.386 191.952 446.148 184.564 446.148C177.176 446.148 170.375 444.386 164.161 440.863ZM172.343 385.781C168.614 388.026 165.645 391.014 163.436 394.745C161.226 398.476 160.121 402.483 160.121 406.767C160.121 411.051 161.226 415.075 163.436 418.84C165.645 422.606 168.614 425.628 172.343 427.908C176.071 430.188 180.145 431.328 184.564 431.328C188.983 431.328 193.074 430.188 196.837 427.908C200.601 425.628 203.57 422.606 205.745 418.84C207.92 415.075 209.007 411.051 209.007 406.767C209.007 402.483 207.92 398.476 205.745 394.745C203.57 391.014 200.601 388.026 196.837 385.781C193.074 383.535 188.983 382.413 184.564 382.413C180.145 382.413 176.071 383.535 172.343 385.781ZM238.836 444.697V368.94H272.496C277.882 368.94 282.646 370.046 286.789 372.257C290.932 374.467 294.143 377.576 296.421 381.584C298.7 385.591 299.839 390.151 299.839 395.263C299.839 400.722 298.458 405.592 295.696 409.876C292.935 414.16 289.171 417.303 284.407 419.307C289.31 425.525 295.835 433.988 303.982 444.697H284.407C279.988 439.17 273.946 431.294 266.282 421.069H255.096V444.697H238.836ZM272.496 406.871C275.327 406.871 277.882 405.851 280.161 403.813C282.439 401.775 283.579 398.925 283.579 395.263C283.579 392.293 282.785 389.529 281.196 386.973C279.608 384.416 276.708 383.138 272.496 383.138H255.096V406.871H272.496ZM344.789 383.138V444.697H328.321V383.138H306.261V368.94H366.746V383.138H344.789ZM393.054 400.031H429.304V414.332H393.054V430.499H434.068V444.697H376.689V368.94H434.068V383.138H393.054V400.031ZM441.836 369.044H462.446L482.021 395.16L501.596 369.044H522L492.275 407.181L521.482 444.697H500.975L482.021 419.514L463.068 444.697H442.457L471.768 407.181L441.836 369.044Z" fill="white"/>
<path d="M68.3119 464.819V472.535C68.3119 473.927 68.5992 474.998 69.1738 475.749C69.7484 476.499 70.6223 476.886 71.7957 476.911C74.0941 476.911 75.2554 475.392 75.2796 472.353V464.819H76.4772V472.662C76.4772 474.345 76.084 475.652 75.2977 476.584C74.5114 477.516 73.3441 477.988 71.7957 478C70.2715 478 69.1133 477.537 68.3209 476.611C67.5286 475.685 67.1264 474.399 67.1143 472.753V464.819H68.3119ZM93.011 470.483C93.7851 470.483 94.4202 470.293 94.9162 469.911C95.4122 469.53 95.6662 468.964 95.6783 468.214C95.6783 467.512 95.4303 466.952 94.9343 466.534C94.4384 466.117 93.7791 465.908 92.9565 465.908H90.2348V470.483H93.011ZM92.7025 464.819C94.0089 464.819 95.0251 465.109 95.7509 465.69C96.4767 466.271 96.8517 467.112 96.8759 468.214C96.8759 469.243 96.5251 470.057 95.8234 470.656C95.1218 471.255 94.2085 471.561 93.0835 471.573H90.2348V477.673H89.0372V464.819H92.7025ZM114.535 464.492C116.47 464.48 118.012 465.073 119.162 466.271L118.291 467.179C117.928 466.731 117.393 466.353 116.685 466.044C115.977 465.735 115.26 465.581 114.535 465.581C112.926 465.581 111.619 466.114 110.615 467.179C109.611 468.244 109.103 469.6 109.091 471.246C109.091 472.88 109.587 474.224 110.579 475.277C111.571 476.33 112.896 476.874 114.553 476.911C116.125 476.911 117.317 476.656 118.127 476.148V471.827H115.043V470.738H119.325V476.838C117.934 477.613 116.337 478 114.535 478C112.599 478 111.018 477.368 109.79 476.103C108.562 474.838 107.93 473.219 107.894 471.246C107.906 469.261 108.529 467.645 109.763 466.398C110.996 465.151 112.587 464.516 114.535 464.492ZM135.949 470.483C136.881 470.483 137.601 470.275 138.109 469.857C138.617 469.439 138.871 468.886 138.871 468.196C138.871 467.506 138.623 466.955 138.127 466.543C137.631 466.132 136.893 465.92 135.913 465.908H133.318V470.483H135.949ZM135.587 464.819C138.55 464.819 140.044 465.944 140.068 468.196C140.068 470.096 138.974 471.197 136.784 471.5L140.522 477.673H139.161L135.55 471.573H133.318V477.673H132.121V464.819H135.587ZM153.663 473.17H159.56L156.657 466.126L153.663 473.17ZM157.328 464.819L162.735 477.673H161.393L159.995 474.26H153.191L151.739 477.673H150.487L156.094 464.819H157.328ZM177.455 476.584C179.293 476.584 180.745 476.118 181.809 475.186C182.874 474.254 183.412 472.971 183.424 471.337C183.424 469.594 182.895 468.256 181.837 467.324C180.778 466.392 179.299 465.92 177.4 465.908H174.896V476.584H177.455ZM177.709 464.819C179.862 464.819 181.546 465.4 182.762 466.562C183.978 467.724 184.598 469.315 184.622 471.337C184.622 472.523 184.353 473.597 183.814 474.559C183.276 475.522 182.502 476.281 181.492 476.838C180.482 477.395 179.245 477.673 177.781 477.673H173.699V464.819H177.709ZM204.44 464.819V465.908H197.781V470.483H204.023V471.573H197.781V476.584H204.73V477.673H196.583V464.819H204.44ZM234.586 470.483C235.36 470.483 235.995 470.293 236.491 469.911C236.987 469.53 237.241 468.964 237.254 468.214C237.254 467.512 237.006 466.952 236.51 466.534C236.014 466.117 235.354 465.908 234.532 465.908H231.81V470.483H234.586ZM234.278 464.819C235.584 464.819 236.6 465.109 237.326 465.69C238.052 466.271 238.427 467.112 238.451 468.214C238.451 469.243 238.1 470.057 237.399 470.656C236.697 471.255 235.784 471.561 234.659 471.573H231.81V477.673H230.612V464.819H234.278ZM258.16 464.819V465.908H251.501V470.483H257.743V471.573H251.501V476.584H258.451V477.673H250.303V464.819H258.16ZM274.168 470.483C275.099 470.483 275.819 470.275 276.327 469.857C276.835 469.439 277.089 468.886 277.089 468.196C277.089 467.506 276.841 466.955 276.345 466.543C275.849 466.132 275.111 465.92 274.132 465.908H271.537V470.483H274.168ZM273.805 464.819C276.769 464.819 278.263 465.944 278.287 468.196C278.287 470.096 277.192 471.197 275.003 471.5L278.74 477.673H277.38L273.769 471.573H271.537V477.673H270.339V464.819H273.805ZM298.069 464.819V465.908H291.573V470.483H297.615V471.573H291.573V477.673H290.375V464.819H298.069ZM310.102 471.246C310.102 472.88 310.604 474.227 311.608 475.286C312.613 476.345 313.925 476.886 315.546 476.911C317.179 476.911 318.492 476.375 319.483 475.304C320.475 474.233 320.977 472.88 320.989 471.246C320.989 469.588 320.494 468.235 319.502 467.188C318.51 466.141 317.185 465.605 315.528 465.581C313.907 465.581 312.6 466.114 311.608 467.179C310.617 468.244 310.115 469.6 310.102 471.246ZM315.546 464.492C316.852 464.492 318.008 464.779 319.012 465.354C320.016 465.929 320.793 466.734 321.343 467.769C321.894 468.804 322.175 469.963 322.187 471.246C322.187 473.219 321.564 474.832 320.318 476.085C319.072 477.337 317.481 477.976 315.546 478C313.598 478 312.014 477.368 310.792 476.103C309.57 474.838 308.941 473.219 308.905 471.246C308.917 469.273 309.534 467.663 310.756 466.416C311.977 465.17 313.574 464.528 315.546 464.492ZM337.977 470.483C338.908 470.483 339.628 470.275 340.136 469.857C340.644 469.439 340.898 468.886 340.898 468.196C340.898 467.506 340.65 466.955 340.154 466.543C339.658 466.132 338.92 465.92 337.941 465.908H335.346V470.483H337.977ZM337.614 464.819C340.578 464.819 342.072 465.944 342.096 468.196C342.096 470.096 341.001 471.197 338.812 471.5L342.549 477.673H341.189L337.578 471.573H335.346V477.673H334.148V464.819H337.614ZM355.853 464.819L360.535 475.603L365.216 464.819H366.922V477.673H365.724V466.344H365.688L360.789 477.673H360.263L355.291 466.344H355.255V477.673H354.057V464.819H355.853ZM381.097 473.17H386.994L384.091 466.126L381.097 473.17ZM384.762 464.819L390.169 477.673H388.827L387.43 474.26H380.625L379.174 477.673H377.922L383.528 464.819H384.762ZM402.838 464.819L410.659 476.075H410.695V464.819H411.893V477.673H410.35L402.53 466.416H402.494V477.673H401.296V464.819H402.838ZM430.495 464.492C432.394 464.492 433.87 465.164 434.922 466.507L433.943 467.324C433.58 466.779 433.096 466.353 432.491 466.044C431.886 465.735 431.221 465.581 430.495 465.581C428.898 465.581 427.598 466.108 426.594 467.161C425.59 468.214 425.076 469.576 425.052 471.246C425.052 472.904 425.557 474.257 426.567 475.304C427.577 476.351 428.886 476.886 430.495 476.911C431.185 476.911 431.886 476.738 432.6 476.393C433.314 476.048 433.876 475.555 434.287 474.913L435.267 475.658C434.13 477.219 432.539 478 430.495 478C428.511 477.988 426.917 477.346 425.714 476.075C424.51 474.805 423.89 473.195 423.854 471.246C423.854 469.273 424.474 467.66 425.714 466.407C426.954 465.154 428.548 464.516 430.495 464.492ZM454.595 464.819V465.908H447.936V470.483H454.178V471.573H447.936V476.584H454.886V477.673H446.739V464.819H454.595Z" fill="#39E991"/>
</g>
<defs>
<clipPath id="clip0">
<rect width="522" height="478" fill="white"/>
</clipPath>
</defs>
</svg>
